<svg id="svg" version="1.1" xmlns="http://www.w3.org/2000/svg" xmlns:xlink="http://www.w3.org/1999/xlink" width="400" height="400" viewBox="0, 0, 400,400"><g id="svgg"><path id="path0" d="M0.000 200.000 L 0.000 400.000 66.400 400.000 L 132.800 400.000 132.800 398.473 C 132.800 396.715,132.508 396.583,124.313 394.639 C 117.936 393.126,108.006 387.723,106.184 384.774 C 105.921 384.349,104.132 383.547,100.867 382.392 C 98.517 381.561,95.489 379.889,94.449 378.849 C 94.081 378.481,92.514 377.157,90.966 375.907 C 89.419 374.656,87.932 373.221,87.662 372.717 C 87.100 371.667,84.983 370.395,82.479 369.603 C 80.357 368.931,74.639 363.959,72.991 361.352 C 72.126 359.983,71.313 359.286,69.799 358.617 C 67.541 357.618,62.231 352.182,60.340 348.935 C 59.631 347.716,58.626 346.741,57.299 345.982 C 56.209 345.360,54.528 343.894,53.564 342.725 C 52.600 341.556,51.604 340.467,51.351 340.305 C 50.628 339.843,48.486 336.318,48.183 335.093 C 48.033 334.484,47.383 333.584,46.740 333.093 C 43.934 330.950,42.724 329.814,42.212 328.841 C 41.911 328.268,40.942 327.055,40.059 326.143 C 38.530 324.565,36.022 320.140,35.024 317.256 C 34.705 316.335,33.876 315.455,32.389 314.456 C 30.319 313.066,29.472 311.952,26.875 307.200 C 26.146 305.866,25.145 302.968,23.166 296.455 C 22.475 294.182,21.893 293.132,20.614 291.855 C 16.907 288.150,15.572 285.006,10.619 268.319 C 10.051 266.405,9.406 264.727,9.185 264.591 C 5.441 262.277,4.003 244.046,4.014 199.000 C 4.024 154.548,5.073 142.068,9.273 136.386 C 9.696 135.815,10.915 132.570,11.982 129.174 C 16.555 114.630,17.403 112.736,20.298 110.600 C 21.982 109.357,23.147 106.875,24.991 100.600 C 25.629 98.428,26.760 95.959,28.104 93.804 C 29.794 91.092,32.564 87.647,33.425 87.186 C 34.059 86.847,35.025 85.445,36.016 83.423 C 37.432 80.537,39.311 77.778,42.686 73.630 C 43.299 72.877,44.465 71.779,45.278 71.190 C 46.944 69.983,49.235 67.129,50.601 64.559 C 51.994 61.939,55.982 57.657,58.000 56.614 C 60.049 55.555,61.607 53.948,62.587 51.885 C 63.454 50.057,68.328 45.462,70.736 44.201 C 73.453 42.779,75.691 40.912,77.853 38.262 C 79.650 36.060,87.334 30.400,88.527 30.400 C 89.251 30.400,93.200 28.309,93.200 27.926 C 93.200 25.590,102.675 19.238,108.000 18.004 C 112.643 16.928,115.180 15.709,117.008 13.676 C 119.451 10.958,125.723 8.159,134.229 5.991 C 143.663 3.586,144.000 3.433,144.000 1.546 L 144.000 0.000 72.000 0.000 L 0.000 0.000 0.000 200.000 M271.600 1.561 L 271.600 3.122 274.300 3.940 C 275.785 4.389,277.850 4.946,278.889 5.178 C 288.145 7.239,293.618 9.689,297.080 13.318 C 300.821 17.240,307.430 19.387,312.806 18.427 C 316.180 17.824,316.553 17.320,316.974 12.800 C 317.318 9.108,317.890 6.657,318.859 4.716 C 319.267 3.900,319.600 2.505,319.600 1.616 L 319.600 0.000 295.600 0.000 L 271.600 0.000 271.600 1.561 M394.000 1.800 C 394.000 2.790,394.156 3.600,394.346 3.600 C 394.536 3.600,395.190 4.320,395.800 5.200 C 396.770 6.599,397.103 6.800,398.454 6.800 L 400.000 6.800 400.000 3.400 L 400.000 0.000 397.000 0.000 L 394.000 0.000 394.000 1.800 M202.916 100.821 C 192.856 101.393,184.507 102.733,182.000 104.177 C 180.790 104.874,178.180 106.114,176.200 106.934 C 174.220 107.753,171.970 108.772,171.200 109.200 C 167.675 111.156,164.680 112.414,161.763 113.163 C 157.438 114.273,155.965 115.111,152.589 118.384 C 150.992 119.933,149.484 121.200,149.239 121.200 C 148.993 121.200,147.467 122.429,145.848 123.930 C 144.228 125.432,142.342 126.893,141.656 127.177 C 140.824 127.521,140.109 128.297,139.505 129.507 C 139.007 130.505,137.902 131.879,137.048 132.561 C 134.753 134.394,134.094 135.138,132.263 137.970 C 131.348 139.384,130.240 141.034,129.800 141.636 C 129.360 142.238,127.970 144.232,126.711 146.066 C 125.453 147.900,123.865 149.760,123.183 150.200 C 121.438 151.326,121.019 152.320,119.808 158.206 C 118.508 164.524,117.401 168.637,116.207 171.581 C 114.220 176.481,113.543 178.463,111.760 184.600 L 109.900 191.000 109.711 199.800 C 109.527 208.372,109.549 208.691,110.556 212.101 C 112.980 220.313,113.670 222.450,115.362 227.000 C 117.775 233.487,118.657 236.546,119.618 241.774 C 120.065 244.208,120.524 246.630,120.637 247.156 C 120.751 247.681,121.868 249.128,123.122 250.370 C 124.375 251.612,126.073 253.792,126.896 255.214 C 127.718 256.636,129.200 258.784,130.188 259.988 C 131.176 261.191,132.447 263.261,133.013 264.588 C 133.657 266.099,134.506 267.329,135.285 267.879 C 135.970 268.363,137.183 269.623,137.982 270.679 C 138.780 271.736,140.451 273.274,141.695 274.097 C 142.939 274.920,144.538 276.316,145.247 277.199 C 145.957 278.082,147.317 279.261,148.269 279.819 C 149.221 280.377,150.698 281.771,151.552 282.917 C 152.706 284.466,153.604 285.196,155.052 285.765 C 156.123 286.185,157.450 286.837,158.000 287.212 C 158.550 287.588,159.450 288.022,160.000 288.178 C 163.449 289.154,169.341 292.626,171.224 294.790 C 173.036 296.874,173.425 297.113,176.293 297.907 C 188.029 301.154,211.874 301.958,231.400 299.764 C 240.786 298.709,243.096 297.993,244.793 295.610 C 245.894 294.064,248.767 292.088,251.330 291.114 C 252.433 290.695,253.765 290.014,254.290 289.601 C 254.815 289.187,256.156 288.547,257.268 288.177 C 262.509 286.437,265.915 284.471,266.425 282.894 C 267.130 280.712,272.434 275.662,275.824 273.946 C 277.311 273.193,278.661 272.312,278.825 271.989 C 278.989 271.665,279.676 270.230,280.352 268.800 C 284.722 259.561,297.185 248.407,304.461 247.223 C 305.659 247.028,307.249 246.619,307.995 246.315 C 309.115 245.858,309.885 245.846,312.416 246.249 C 314.631 246.601,325.917 246.766,353.096 246.843 L 390.711 246.949 393.830 244.074 C 396.563 241.557,397.139 241.200,398.475 241.200 L 400.000 241.200 400.000 187.400 L 400.000 133.600 398.500 133.615 C 397.219 133.628,396.845 133.855,395.938 135.167 C 394.610 137.089,391.671 138.572,387.393 139.481 C 382.904 140.435,300.354 140.419,293.679 139.463 C 286.915 138.495,282.462 135.390,279.817 129.800 C 279.085 128.252,278.428 127.441,277.680 127.162 C 273.532 125.613,268.257 121.033,266.447 117.409 C 265.611 115.735,265.451 115.635,261.292 114.191 C 254.243 111.744,244.996 107.470,242.279 105.403 C 239.714 103.453,239.318 103.312,233.892 102.430 C 223.494 100.740,213.478 100.220,202.916 100.821 M395.899 289.500 C 395.343 290.765,394.669 292.492,394.400 293.339 C 394.132 294.185,393.157 295.985,392.234 297.339 C 390.251 300.247,389.380 302.304,388.985 305.015 C 388.444 308.724,387.257 311.822,385.680 313.641 C 384.842 314.609,383.669 316.246,383.073 317.281 C 382.476 318.316,381.134 319.883,380.089 320.764 C 378.472 322.127,377.923 323.006,376.395 326.677 C 375.107 329.771,374.148 331.440,373.000 332.587 C 372.120 333.466,370.908 334.955,370.306 335.896 C 369.705 336.837,368.383 338.191,367.368 338.904 C 365.962 339.891,365.248 340.804,364.370 342.737 C 363.205 345.300,362.834 345.695,347.716 360.483 C 346.882 361.298,344.613 363.577,342.674 365.548 C 339.775 368.493,338.632 369.357,336.257 370.401 C 334.203 371.304,333.094 372.069,332.427 373.043 C 331.909 373.798,330.567 375.077,329.443 375.887 C 328.319 376.696,326.806 377.865,326.079 378.485 C 324.501 379.831,319.440 382.412,316.464 383.388 C 315.238 383.790,313.882 384.589,313.281 385.263 C 312.706 385.908,311.597 386.826,310.818 387.301 C 310.038 387.776,308.261 389.043,306.868 390.116 C 303.912 392.394,302.436 393.070,298.836 393.796 C 297.386 394.088,293.905 394.903,291.100 395.608 L 286.000 396.890 286.000 398.445 L 286.000 400.000 343.000 400.000 L 400.000 400.000 400.000 343.600 L 400.000 287.200 398.455 287.200 C 396.957 287.200,396.878 287.271,395.899 289.500 " stroke="none" fill="#f9fbfb" fill-rule="evenodd"></path><path id="path1" d="M155.523 1.668 L 155.400 3.335 147.800 5.882 C 143.620 7.282,138.056 9.062,135.435 9.837 C 129.209 11.678,126.448 12.824,123.674 14.717 C 119.885 17.304,115.565 19.489,112.400 20.420 C 107.457 21.874,102.934 24.305,99.947 27.113 C 98.478 28.495,94.333 31.533,90.737 33.863 C 87.142 36.193,83.116 39.113,81.790 40.350 C 80.465 41.588,76.947 44.426,73.973 46.658 C 70.999 48.889,67.920 51.503,67.130 52.467 C 66.341 53.431,63.379 56.535,60.547 59.366 C 57.716 62.197,54.860 65.277,54.200 66.211 C 51.667 69.796,48.410 73.885,46.449 75.942 C 44.555 77.928,38.125 87.054,36.684 89.800 C 36.337 90.460,35.131 91.990,34.003 93.200 C 31.432 95.958,29.875 98.775,27.183 105.533 C 26.015 108.466,24.256 112.246,23.274 113.933 C 18.745 121.712,17.892 123.795,16.399 130.717 C 15.551 134.647,12.566 142.018,10.393 145.550 C 6.913 151.206,5.610 165.968,5.605 199.800 C 5.599 237.927,6.521 246.376,12.018 258.600 C 14.470 264.053,15.446 266.748,16.040 269.708 C 17.176 275.368,20.015 283.215,21.910 285.929 C 23.934 288.829,24.867 290.715,26.001 294.200 C 26.502 295.740,27.231 297.720,27.621 298.600 C 30.649 305.428,31.649 307.224,33.696 309.519 C 36.178 312.301,38.655 315.876,41.232 320.400 C 42.172 322.050,43.965 324.480,45.217 325.800 C 46.469 327.120,49.070 330.450,50.998 333.200 C 53.171 336.301,56.116 339.813,58.751 342.447 C 61.088 344.783,64.530 348.365,66.400 350.407 C 68.270 352.449,70.790 354.851,72.000 355.743 C 73.210 356.636,76.015 359.084,78.233 361.183 C 81.020 363.821,83.612 365.803,86.624 367.600 C 89.020 369.030,92.156 371.264,93.591 372.565 C 97.062 375.711,100.685 378.025,107.200 381.258 C 110.170 382.731,113.680 384.757,115.000 385.759 C 118.484 388.405,121.342 389.706,129.200 392.225 C 133.050 393.459,137.550 394.949,139.200 395.536 L 142.200 396.603 142.323 398.301 L 142.446 400.000 147.046 400.000 L 151.646 400.000 151.523 398.359 L 151.400 396.718 146.674 394.745 C 144.075 393.660,139.935 392.248,137.474 391.606 C 127.127 388.906,122.142 386.863,117.600 383.460 C 115.950 382.224,113.294 380.664,111.698 379.994 C 105.557 377.415,99.214 373.555,96.600 370.806 C 95.940 370.112,92.634 367.816,89.254 365.704 C 85.396 363.293,82.196 360.953,80.654 359.415 C 79.304 358.068,76.463 355.585,74.339 353.896 C 72.216 352.208,69.066 349.246,67.339 347.314 C 65.613 345.382,62.452 342.091,60.315 340.001 C 57.653 337.397,55.523 334.815,53.551 331.800 C 51.968 329.380,49.560 326.230,48.201 324.800 C 46.716 323.239,44.955 320.762,43.791 318.600 C 41.607 314.543,38.447 310.080,35.410 306.765 C 32.857 303.978,30.331 298.865,29.242 294.283 C 28.615 291.643,27.591 289.258,24.958 284.307 C 20.051 275.079,18.826 270.951,15.833 253.555 C 15.696 252.761,14.840 251.051,13.931 249.755 C 9.676 243.698,9.352 242.946,8.667 237.576 C 6.347 219.366,6.330 179.509,8.637 162.072 C 9.229 157.590,9.256 157.516,11.350 154.672 C 15.288 149.325,15.497 148.793,17.459 139.124 C 19.696 128.100,20.605 125.312,23.682 120.037 C 26.785 114.716,28.853 110.229,30.216 105.860 C 31.484 101.791,32.970 99.190,36.204 95.378 C 37.500 93.851,40.207 90.081,42.220 87.001 C 44.234 83.920,47.275 79.780,48.978 77.800 C 50.681 75.820,53.363 72.430,54.937 70.266 C 58.584 65.255,71.458 52.222,75.928 49.017 C 77.755 47.707,81.214 44.978,83.615 42.953 C 86.015 40.927,89.378 38.402,91.089 37.342 C 95.966 34.318,98.387 32.552,101.316 29.879 C 105.294 26.249,108.217 24.606,112.412 23.640 C 116.390 22.724,120.987 20.580,125.809 17.392 C 130.139 14.529,132.798 13.415,139.189 11.787 C 142.165 11.029,147.300 9.595,150.600 8.602 C 153.900 7.608,158.580 6.329,161.000 5.760 C 163.420 5.191,166.615 4.376,168.100 3.951 L 170.800 3.177 170.800 1.588 L 170.800 0.000 163.223 0.000 L 155.646 0.000 155.523 1.668 M245.600 1.592 C 245.600 2.918,245.751 3.218,246.500 3.385 C 246.995 3.496,248.660 3.867,250.200 4.210 C 251.740 4.553,254.980 5.449,257.400 6.200 C 267.414 9.311,272.765 10.830,275.600 11.367 C 280.752 12.344,284.845 14.200,291.156 18.424 C 295.940 21.627,297.762 22.599,301.200 23.782 C 306.361 25.559,312.075 27.884,314.170 29.061 L 315.739 29.943 317.634 28.983 C 320.557 27.502,320.961 26.776,323.019 19.323 C 325.996 8.540,328.942 6.178,338.121 7.215 C 340.057 7.434,350.047 7.603,360.321 7.592 C 383.595 7.567,383.652 7.579,389.173 13.730 C 391.134 15.914,391.804 20.119,390.986 25.109 C 390.244 29.638,390.121 112.767,390.848 118.438 C 391.915 126.760,389.165 130.936,381.270 132.982 C 379.069 133.552,374.179 133.625,338.029 133.625 C 289.387 133.625,292.073 133.859,288.082 129.266 C 284.758 125.439,281.383 122.203,278.200 119.788 C 276.660 118.620,274.256 116.381,272.858 114.813 C 269.521 111.072,267.110 109.298,261.790 106.673 C 259.375 105.482,256.449 103.754,255.286 102.834 C 251.734 100.020,244.210 97.436,237.600 96.760 C 235.510 96.547,229.930 95.726,225.200 94.936 C 214.820 93.204,207.747 93.208,196.600 94.954 C 193.080 95.505,188.130 96.240,185.600 96.587 C 173.342 98.269,171.483 98.828,167.000 102.183 C 164.008 104.423,162.688 105.145,153.515 109.559 C 148.375 112.033,147.208 112.784,144.286 115.496 C 142.447 117.203,139.011 120.310,136.652 122.400 C 132.528 126.054,129.709 129.443,124.179 137.400 C 123.109 138.940,121.457 141.100,120.509 142.200 C 118.325 144.732,115.634 150.244,113.601 156.348 C 112.730 158.962,110.790 163.508,109.289 166.450 C 104.046 176.727,103.397 180.540,103.406 201.000 C 103.416 220.927,104.000 224.170,109.572 235.200 C 111.073 238.170,112.791 242.220,113.391 244.200 C 115.084 249.786,118.308 256.099,121.563 260.202 C 124.763 264.235,125.462 265.238,128.243 269.800 C 130.370 273.288,131.235 274.217,140.292 282.750 C 147.205 289.262,150.028 291.304,156.000 294.105 C 158.310 295.189,161.370 296.937,162.800 297.991 C 170.769 303.860,171.815 304.309,180.498 305.585 C 183.439 306.017,188.175 306.822,191.022 307.373 C 203.856 309.856,215.518 309.642,231.300 306.634 C 232.895 306.330,235.460 305.959,237.000 305.810 C 242.543 305.274,249.944 302.047,255.825 297.604 C 257.571 296.284,259.136 295.203,259.302 295.202 C 261.529 295.188,267.413 291.293,272.270 286.620 C 275.148 283.850,278.206 281.074,279.066 280.451 C 281.423 278.743,285.327 274.282,288.448 269.729 C 291.581 265.158,297.355 259.381,300.897 257.274 C 305.501 254.534,298.942 254.708,387.400 254.985 C 390.480 254.994,394.575 255.163,396.500 255.360 L 400.000 255.718 400.000 253.000 L 400.000 250.282 396.300 250.575 C 394.265 250.736,391.031 250.988,389.114 251.134 C 387.197 251.280,368.207 251.310,346.914 251.200 C 303.721 250.977,305.042 250.908,300.269 253.648 C 296.093 256.047,289.428 262.715,285.926 268.000 C 282.889 272.583,279.816 275.976,276.400 278.517 C 275.190 279.417,272.220 282.154,269.800 284.600 C 265.563 288.882,265.210 289.139,260.266 291.539 C 257.442 292.910,253.683 295.023,251.913 296.236 C 245.930 300.333,241.463 302.147,234.400 303.346 C 214.354 306.751,192.614 306.154,176.407 301.754 C 171.788 300.500,171.451 300.330,166.973 296.990 C 165.008 295.524,161.408 293.367,158.974 292.197 C 152.835 289.244,147.763 285.659,142.600 280.620 C 140.180 278.259,137.157 275.501,135.883 274.491 C 134.219 273.173,132.988 271.690,131.515 269.228 C 129.375 265.652,124.379 258.527,122.126 255.838 C 120.060 253.373,117.381 247.756,116.218 243.456 C 115.631 241.287,114.697 238.497,114.142 237.256 C 113.587 236.015,112.675 233.740,112.116 232.200 C 111.557 230.660,110.562 228.330,109.904 227.021 C 107.047 221.337,106.321 215.986,106.293 200.400 C 106.264 184.872,106.996 179.575,109.997 173.600 C 111.709 170.190,115.290 160.876,116.611 156.398 C 117.832 152.261,120.575 146.768,122.531 144.546 C 123.429 143.526,125.161 141.288,126.381 139.571 C 127.602 137.855,129.671 134.954,130.979 133.125 C 133.487 129.620,136.514 126.495,141.800 121.952 C 143.560 120.440,146.260 118.102,147.800 116.757 C 150.537 114.367,155.517 111.641,163.655 108.081 C 165.313 107.355,167.886 105.792,169.372 104.608 C 172.583 102.049,177.060 100.783,189.200 99.001 C 207.221 96.355,215.023 96.220,228.200 98.326 C 232.380 98.994,236.970 99.665,238.400 99.816 C 242.002 100.197,247.034 102.176,252.861 105.505 C 255.578 107.057,259.892 109.328,262.447 110.552 C 266.852 112.662,267.266 112.967,270.446 116.456 C 272.291 118.479,275.060 121.077,276.600 122.228 C 279.874 124.676,282.498 127.172,285.721 130.903 C 290.990 137.005,289.082 136.795,339.265 136.798 C 386.683 136.800,387.155 136.755,391.582 131.725 C 394.761 128.114,394.503 133.016,394.431 77.439 C 394.388 44.962,394.509 26.800,394.780 24.907 C 395.712 18.409,393.615 10.354,390.355 7.908 C 385.127 3.985,384.608 3.914,359.200 3.600 C 346.990 3.449,336.955 3.298,336.900 3.263 C 336.845 3.228,336.800 2.480,336.800 1.600 L 336.800 0.000 335.000 0.000 L 333.200 0.000 333.200 1.567 C 333.200 3.125,331.677 3.948,328.680 4.010 C 326.257 4.060,322.689 8.549,321.366 13.211 C 320.007 18.002,318.475 21.431,316.888 23.239 L 315.645 24.654 312.316 23.980 C 305.352 22.570,296.930 19.041,293.400 16.054 C 289.761 12.974,284.363 10.615,274.952 7.993 C 273.219 7.509,270.180 6.509,268.200 5.771 C 266.220 5.032,263.565 4.138,262.300 3.785 L 260.000 3.143 260.000 1.572 L 260.000 0.000 252.800 0.000 L 245.600 0.000 245.600 1.592 M396.349 273.696 C 396.085 274.188,394.742 277.074,393.364 280.109 C 391.986 283.144,390.307 286.256,389.632 287.025 C 387.960 288.929,387.027 290.864,385.867 294.835 C 384.111 300.842,380.229 309.037,377.965 311.514 C 375.885 313.791,374.799 315.650,373.080 319.879 C 371.852 322.902,367.655 329.118,365.662 330.867 C 364.858 331.572,363.300 333.259,362.200 334.616 C 352.619 346.438,337.252 361.512,329.600 366.596 C 326.630 368.570,323.480 370.840,322.600 371.642 C 320.689 373.383,315.803 376.573,314.400 376.995 C 312.026 377.710,306.785 380.489,304.200 382.404 C 299.483 385.898,294.682 387.990,285.800 390.417 C 271.781 394.249,267.600 396.098,267.600 398.464 L 267.600 400.000 272.200 400.000 L 276.800 400.000 276.800 398.437 L 276.800 396.875 279.700 395.679 C 281.295 395.021,283.680 394.178,285.000 393.806 C 296.536 390.551,302.360 388.172,306.000 385.229 C 308.664 383.074,310.925 381.770,314.299 380.440 C 316.991 379.379,322.920 375.593,326.000 372.968 C 327.430 371.749,330.490 369.519,332.800 368.011 C 338.429 364.337,356.644 346.436,362.522 338.800 C 364.639 336.050,366.822 333.481,367.372 333.092 C 369.048 331.905,373.518 325.271,375.645 320.813 C 376.751 318.496,378.242 315.970,378.959 315.200 C 382.908 310.958,383.309 310.163,388.371 296.534 C 389.202 294.297,390.870 290.787,392.079 288.734 C 393.287 286.680,394.876 283.605,395.610 281.900 C 396.941 278.807,396.948 278.800,398.472 278.800 L 400.000 278.800 400.000 275.800 L 400.000 272.800 398.414 272.800 C 397.181 272.800,396.721 272.999,396.349 273.696 " stroke="none" fill="#82d3e9" fill-rule="evenodd"></path><path id="path2" d="M144.000 1.546 C 144.000 3.433,143.663 3.586,134.229 5.991 C 125.723 8.159,119.451 10.958,117.008 13.676 C 115.180 15.709,112.643 16.928,108.000 18.004 C 102.675 19.238,93.200 25.590,93.200 27.926 C 93.200 28.309,89.251 30.400,88.527 30.400 C 87.334 30.400,79.650 36.060,77.853 38.262 C 75.691 40.912,73.453 42.779,70.736 44.201 C 68.328 45.462,63.454 50.057,62.587 51.885 C 61.607 53.948,60.049 55.555,58.000 56.614 C 55.982 57.657,51.994 61.939,50.601 64.559 C 49.235 67.129,46.944 69.983,45.278 71.190 C 44.465 71.779,43.299 72.877,42.686 73.630 C 39.311 77.778,37.432 80.537,36.016 83.423 C 35.025 85.445,34.059 86.847,33.425 87.186 C 32.564 87.647,29.794 91.092,28.104 93.804 C 26.760 95.959,25.629 98.428,24.991 100.600 C 23.147 106.875,21.982 109.357,20.298 110.600 C 17.403 112.736,16.555 114.630,11.982 129.174 C 10.915 132.570,9.696 135.815,9.273 136.386 C 5.073 142.068,4.024 154.548,4.014 199.000 C 4.003 244.046,5.441 262.277,9.185 264.591 C 9.406 264.727,10.051 266.405,10.619 268.319 C 15.572 285.006,16.907 288.150,20.614 291.855 C 21.893 293.132,22.475 294.182,23.166 296.455 C 25.145 302.968,26.146 305.866,26.875 307.200 C 29.472 311.952,30.319 313.066,32.389 314.456 C 33.876 315.455,34.705 316.335,35.024 317.256 C 36.022 320.140,38.530 324.565,40.059 326.143 C 40.942 327.055,41.911 328.268,42.212 328.841 C 42.724 329.814,43.934 330.950,46.740 333.093 C 47.383 333.584,48.033 334.484,48.183 335.093 C 48.486 336.318,50.628 339.843,51.351 340.305 C 51.604 340.467,52.600 341.556,53.564 342.725 C 54.528 343.894,56.209 345.360,57.299 345.982 C 58.626 346.741,59.631 347.716,60.340 348.935 C 62.231 352.182,67.541 357.618,69.799 358.617 C 71.313 359.286,72.126 359.983,72.991 361.352 C 74.639 363.959,80.357 368.931,82.479 369.603 C 84.983 370.395,87.100 371.667,87.662 372.717 C 87.932 373.221,89.419 374.656,90.966 375.907 C 92.514 377.157,94.081 378.481,94.449 378.849 C 95.489 379.889,98.517 381.561,100.867 382.392 C 104.132 383.547,105.921 384.349,106.184 384.774 C 108.006 387.723,117.936 393.126,124.313 394.639 C 132.508 396.583,132.800 396.715,132.800 398.473 L 132.800 400.000 137.623 400.000 L 142.446 400.000 142.323 398.301 L 142.200 396.603 139.200 395.536 C 137.550 394.949,133.050 393.459,129.200 392.225 C 121.342 389.706,118.484 388.405,115.000 385.759 C 113.680 384.757,110.170 382.731,107.200 381.258 C 100.685 378.025,97.062 375.711,93.591 372.565 C 92.156 371.264,89.020 369.030,86.624 367.600 C 83.612 365.803,81.020 363.821,78.233 361.183 C 76.015 359.084,73.210 356.636,72.000 355.743 C 70.790 354.851,68.270 352.449,66.400 350.407 C 64.530 348.365,61.088 344.783,58.751 342.447 C 56.116 339.813,53.171 336.301,50.998 333.200 C 49.070 330.450,46.469 327.120,45.217 325.800 C 43.965 324.480,42.172 322.050,41.232 320.400 C 38.655 315.876,36.178 312.301,33.696 309.519 C 31.649 307.224,30.649 305.428,27.621 298.600 C 27.231 297.720,26.502 295.740,26.001 294.200 C 24.867 290.715,23.934 288.829,21.910 285.929 C 20.015 283.215,17.176 275.368,16.040 269.708 C 15.446 266.748,14.470 264.053,12.018 258.600 C 6.521 246.376,5.599 237.927,5.605 199.800 C 5.610 165.968,6.913 151.206,10.393 145.550 C 12.566 142.018,15.551 134.647,16.399 130.717 C 17.892 123.795,18.745 121.712,23.274 113.933 C 24.256 112.246,26.015 108.466,27.183 105.533 C 29.875 98.775,31.432 95.958,34.003 93.200 C 35.131 91.990,36.337 90.460,36.684 89.800 C 38.125 87.054,44.555 77.928,46.449 75.942 C 48.410 73.885,51.667 69.796,54.200 66.211 C 54.860 65.277,57.716 62.197,60.547 59.366 C 63.379 56.535,66.341 53.431,67.130 52.467 C 67.920 51.503,70.999 48.889,73.973 46.658 C 76.947 44.426,80.465 41.588,81.790 40.350 C 83.116 39.113,87.142 36.193,90.737 33.863 C 94.333 31.533,98.478 28.495,99.947 27.113 C 102.934 24.305,107.457 21.874,112.400 20.420 C 115.565 19.489,119.885 17.304,123.674 14.717 C 126.448 12.824,129.209 11.678,135.435 9.837 C 138.056 9.062,143.620 7.282,147.800 5.882 L 155.400 3.335 155.523 1.668 L 155.646 0.000 149.823 0.000 L 144.000 0.000 144.000 1.546 M260.000 1.572 L 260.000 3.143 262.300 3.785 C 263.565 4.138,266.220 5.032,268.200 5.771 C 270.180 6.509,273.219 7.509,274.952 7.993 C 284.363 10.615,289.761 12.974,293.400 16.054 C 296.930 19.041,305.352 22.570,312.316 23.980 L 315.645 24.654 316.888 23.239 C 318.475 21.431,320.007 18.002,321.366 13.211 C 322.689 8.549,326.257 4.060,328.680 4.010 C 331.677 3.948,333.200 3.125,333.200 1.567 L 333.200 0.000 326.400 0.000 L 319.600 0.000 319.600 1.616 C 319.600 2.505,319.267 3.900,318.859 4.716 C 317.890 6.657,317.318 9.108,316.974 12.800 C 316.553 17.320,316.180 17.824,312.806 18.427 C 307.430 19.387,300.821 17.240,297.080 13.318 C 293.618 9.689,288.145 7.239,278.889 5.178 C 277.850 4.946,275.785 4.389,274.300 3.940 L 271.600 3.122 271.600 1.561 L 271.600 0.000 265.800 0.000 L 260.000 0.000 260.000 1.572 M336.800 1.600 C 336.800 2.480,336.845 3.228,336.900 3.263 C 336.955 3.298,346.990 3.449,359.200 3.600 C 384.608 3.914,385.127 3.985,390.355 7.908 C 393.615 10.354,395.712 18.409,394.780 24.907 C 394.509 26.800,394.388 44.962,394.431 77.439 C 394.503 133.016,394.761 128.114,391.582 131.725 C 387.155 136.755,386.683 136.800,339.265 136.798 C 289.082 136.795,290.990 137.005,285.721 130.903 C 282.498 127.172,279.874 124.676,276.600 122.228 C 275.060 121.077,272.291 118.479,270.446 116.456 C 267.266 112.967,266.852 112.662,262.447 110.552 C 259.892 109.328,255.578 107.057,252.861 105.505 C 247.034 102.176,242.002 100.197,238.400 99.816 C 236.970 99.665,232.380 98.994,228.200 98.326 C 215.023 96.220,207.221 96.355,189.200 99.001 C 177.060 100.783,172.583 102.049,169.372 104.608 C 167.886 105.792,165.313 107.355,163.655 108.081 C 155.517 111.641,150.537 114.367,147.800 116.757 C 146.260 118.102,143.560 120.440,141.800 121.952 C 136.514 126.495,133.487 129.620,130.979 133.125 C 129.671 134.954,127.602 137.855,126.381 139.571 C 125.161 141.288,123.429 143.526,122.531 144.546 C 120.575 146.768,117.832 152.261,116.611 156.398 C 115.290 160.876,111.709 170.190,109.997 173.600 C 106.996 179.575,106.264 184.872,106.293 200.400 C 106.321 215.986,107.047 221.337,109.904 227.021 C 110.562 228.330,111.557 230.660,112.116 232.200 C 112.675 233.740,113.587 236.015,114.142 237.256 C 114.697 238.497,115.631 241.287,116.218 243.456 C 117.381 247.756,120.060 253.373,122.126 255.838 C 124.379 258.527,129.375 265.652,131.515 269.228 C 132.988 271.690,134.219 273.173,135.883 274.491 C 137.157 275.501,140.180 278.259,142.600 280.620 C 147.763 285.659,152.835 289.244,158.974 292.197 C 161.408 293.367,165.008 295.524,166.973 296.990 C 171.451 300.330,171.788 300.500,176.407 301.754 C 192.614 306.154,214.354 306.751,234.400 303.346 C 241.463 302.147,245.930 300.333,251.913 296.236 C 253.683 295.023,257.442 292.910,260.266 291.539 C 265.210 289.139,265.563 288.882,269.800 284.600 C 272.220 282.154,275.190 279.417,276.400 278.517 C 279.816 275.976,282.889 272.583,285.926 268.000 C 289.428 262.715,296.093 256.047,300.269 253.648 C 305.042 250.908,303.721 250.977,346.914 251.200 C 368.207 251.310,387.197 251.280,389.114 251.134 C 391.031 250.988,394.265 250.736,396.300 250.575 L 400.000 250.282 400.000 245.741 L 400.000 241.200 398.475 241.200 C 397.139 241.200,396.563 241.557,393.830 244.074 L 390.711 246.949 353.096 246.843 C 325.917 246.766,314.631 246.601,312.416 246.249 C 309.885 245.846,309.115 245.858,307.995 246.315 C 307.249 246.619,305.659 247.028,304.461 247.223 C 297.185 248.407,284.722 259.561,280.352 268.800 C 279.676 270.230,278.989 271.665,278.825 271.989 C 278.661 272.312,277.311 273.193,275.824 273.946 C 272.434 275.662,267.130 280.712,266.425 282.894 C 265.915 284.471,262.509 286.437,257.268 288.177 C 256.156 288.547,254.815 289.187,254.290 289.601 C 253.765 290.014,252.433 290.695,251.330 291.114 C 248.767 292.088,245.894 294.064,244.793 295.610 C 243.096 297.993,240.786 298.709,231.400 299.764 C 211.874 301.958,188.029 301.154,176.293 297.907 C 173.425 297.113,173.036 296.874,171.224 294.790 C 169.341 292.626,163.449 289.154,160.000 288.178 C 159.450 288.022,158.550 287.588,158.000 287.212 C 157.450 286.837,156.123 286.185,155.052 285.765 C 153.604 285.196,152.706 284.466,151.552 282.917 C 150.698 281.771,149.221 280.377,148.269 279.819 C 147.317 279.261,145.957 278.082,145.247 277.199 C 144.538 276.316,142.939 274.920,141.695 274.097 C 140.451 273.274,138.780 271.736,137.982 270.679 C 137.183 269.623,135.970 268.363,135.285 267.879 C 134.506 267.329,133.657 266.099,133.013 264.588 C 132.447 263.261,131.176 261.191,130.188 259.988 C 129.200 258.784,127.718 256.636,126.896 255.214 C 126.073 253.792,124.375 251.612,123.122 250.370 C 121.868 249.128,120.751 247.681,120.637 247.156 C 120.524 246.630,120.065 244.208,119.618 241.774 C 118.657 236.546,117.775 233.487,115.362 227.000 C 113.657 222.416,112.983 220.328,110.585 212.200 C 109.543 208.671,109.526 208.427,109.711 199.800 L 109.900 191.000 111.760 184.600 C 113.543 178.463,114.220 176.481,116.207 171.581 C 117.401 168.637,118.508 164.524,119.808 158.206 C 121.019 152.320,121.438 151.326,123.183 150.200 C 123.865 149.760,125.453 147.900,126.711 146.066 C 127.970 144.232,129.360 142.238,129.800 141.636 C 130.240 141.034,131.348 139.384,132.263 137.970 C 134.094 135.138,134.753 134.394,137.048 132.561 C 137.902 131.879,139.007 130.505,139.505 129.507 C 140.109 128.297,140.824 127.521,141.656 127.177 C 142.342 126.893,144.228 125.432,145.848 123.930 C 147.467 122.429,148.993 121.200,149.239 121.200 C 149.484 121.200,150.992 119.933,152.589 118.384 C 155.965 115.111,157.438 114.273,161.763 113.163 C 164.680 112.414,167.675 111.156,171.200 109.200 C 171.970 108.772,174.220 107.755,176.200 106.939 C 178.180 106.123,180.682 104.915,181.760 104.256 C 187.909 100.495,215.934 99.512,233.869 102.427 C 239.318 103.312,239.713 103.452,242.279 105.403 C 244.996 107.470,254.243 111.744,261.292 114.191 C 265.451 115.635,265.611 115.735,266.447 117.409 C 268.257 121.033,273.532 125.613,277.680 127.162 C 278.428 127.441,279.085 128.252,279.817 129.800 C 282.462 135.390,286.915 138.495,293.679 139.463 C 300.354 140.419,382.904 140.435,387.393 139.481 C 391.671 138.572,394.610 137.089,395.938 135.167 C 396.845 133.855,397.219 133.628,398.500 133.615 L 400.000 133.600 400.000 70.200 L 400.000 6.800 398.454 6.800 C 397.103 6.800,396.770 6.599,395.800 5.200 C 395.190 4.320,394.536 3.600,394.346 3.600 C 394.156 3.600,394.000 2.790,394.000 1.800 L 394.000 0.000 365.400 0.000 L 336.800 0.000 336.800 1.600 M395.610 281.900 C 394.876 283.605,393.287 286.680,392.079 288.734 C 390.870 290.787,389.202 294.297,388.371 296.534 C 383.309 310.163,382.908 310.958,378.959 315.200 C 378.242 315.970,376.751 318.496,375.645 320.813 C 373.518 325.271,369.048 331.905,367.372 333.092 C 366.822 333.481,364.639 336.050,362.522 338.800 C 356.644 346.436,338.429 364.337,332.800 368.011 C 330.490 369.519,327.430 371.749,326.000 372.968 C 322.920 375.593,316.991 379.379,314.299 380.440 C 310.925 381.770,308.664 383.074,306.000 385.229 C 302.360 388.172,296.536 390.551,285.000 393.806 C 283.680 394.178,281.295 395.021,279.700 395.679 L 276.800 396.875 276.800 398.437 L 276.800 400.000 281.400 400.000 L 286.000 400.000 286.000 398.445 L 286.000 396.890 291.100 395.608 C 293.905 394.903,297.386 394.088,298.836 393.796 C 302.436 393.070,303.912 392.394,306.868 390.116 C 308.261 389.043,310.038 387.776,310.818 387.301 C 311.597 386.826,312.706 385.908,313.281 385.263 C 313.882 384.589,315.238 383.790,316.464 383.388 C 319.440 382.412,324.501 379.831,326.079 378.485 C 326.806 377.865,328.319 376.696,329.443 375.887 C 330.567 375.077,331.909 373.798,332.427 373.043 C 333.094 372.069,334.203 371.304,336.257 370.401 C 338.632 369.357,339.775 368.493,342.674 365.548 C 344.613 363.577,346.882 361.298,347.716 360.483 C 362.834 345.695,363.205 345.300,364.370 342.737 C 365.248 340.804,365.962 339.891,367.368 338.904 C 368.383 338.191,369.705 336.837,370.306 335.896 C 370.908 334.955,372.120 333.466,373.000 332.587 C 374.148 331.440,375.107 329.771,376.395 326.677 C 377.923 323.006,378.472 322.127,380.089 320.764 C 381.134 319.883,382.476 318.316,383.073 317.281 C 383.669 316.246,384.842 314.609,385.680 313.641 C 387.257 311.822,388.444 308.724,388.985 305.015 C 389.380 302.304,390.251 300.247,392.234 297.339 C 393.157 295.985,394.132 294.185,394.400 293.339 C 395.917 288.555,396.812 287.200,398.455 287.200 L 400.000 287.200 400.000 283.000 L 400.000 278.800 398.472 278.800 C 396.948 278.800,396.941 278.807,395.610 281.900 " stroke="none" fill="#bce4f4" fill-rule="evenodd"></path><path id="path3" d="M170.800 1.588 L 170.800 3.177 168.100 3.951 C 166.615 4.376,163.420 5.191,161.000 5.760 C 158.580 6.329,153.900 7.608,150.600 8.602 C 147.300 9.595,142.165 11.029,139.189 11.787 C 132.798 13.415,130.139 14.529,125.809 17.392 C 120.987 20.580,116.390 22.724,112.412 23.640 C 108.217 24.606,105.294 26.249,101.316 29.879 C 98.387 32.552,95.966 34.318,91.089 37.342 C 89.378 38.402,86.015 40.927,83.615 42.953 C 81.214 44.978,77.755 47.707,75.928 49.017 C 71.458 52.222,58.584 65.255,54.937 70.266 C 53.363 72.430,50.681 75.820,48.978 77.800 C 47.275 79.780,44.234 83.920,42.220 87.001 C 40.207 90.081,37.500 93.851,36.204 95.378 C 32.970 99.190,31.484 101.791,30.216 105.860 C 28.853 110.229,26.785 114.716,23.682 120.037 C 20.605 125.312,19.696 128.100,17.459 139.124 C 15.497 148.793,15.288 149.325,11.350 154.672 C 9.256 157.516,9.229 157.590,8.637 162.072 C 6.330 179.509,6.347 219.366,8.667 237.576 C 9.352 242.946,9.676 243.698,13.931 249.755 C 14.840 251.051,15.696 252.761,15.833 253.555 C 18.826 270.951,20.051 275.079,24.958 284.307 C 27.591 289.258,28.615 291.643,29.242 294.283 C 30.331 298.865,32.857 303.978,35.410 306.765 C 38.447 310.080,41.607 314.543,43.791 318.600 C 44.955 320.762,46.716 323.239,48.201 324.800 C 49.560 326.230,51.968 329.380,53.551 331.800 C 55.523 334.815,57.653 337.397,60.315 340.001 C 62.452 342.091,65.613 345.382,67.339 347.314 C 69.066 349.246,72.216 352.208,74.339 353.896 C 76.463 355.585,79.304 358.068,80.654 359.415 C 82.196 360.953,85.396 363.293,89.254 365.704 C 92.634 367.816,95.940 370.112,96.600 370.806 C 99.214 373.555,105.557 377.415,111.698 379.994 C 113.294 380.664,115.950 382.224,117.600 383.460 C 122.142 386.863,127.127 388.906,137.474 391.606 C 139.935 392.248,144.075 393.660,146.674 394.745 L 151.400 396.718 151.523 398.359 L 151.646 400.000 158.623 400.000 L 165.600 400.000 165.600 398.446 C 165.600 396.609,165.342 396.406,160.285 394.255 C 153.968 391.570,144.143 388.490,139.672 387.794 C 132.087 386.614,126.184 384.933,125.487 383.755 C 124.252 381.665,115.932 376.636,111.652 375.392 C 107.009 374.042,103.523 372.114,101.939 370.022 C 100.042 367.517,95.622 364.228,91.400 362.181 C 86.284 359.701,85.395 359.074,83.754 356.789 C 82.952 355.672,81.277 354.067,80.032 353.221 C 78.786 352.376,77.515 351.380,77.207 351.008 C 76.898 350.637,75.426 349.718,73.935 348.967 C 71.500 347.741,71.121 347.384,70.207 345.451 C 69.022 342.947,63.323 336.975,60.744 335.536 C 59.352 334.759,58.945 334.239,58.352 332.483 C 57.382 329.610,55.207 326.165,53.019 324.039 C 52.022 323.070,50.676 321.336,50.027 320.186 C 49.378 319.036,48.389 317.735,47.829 317.295 C 47.270 316.854,46.456 315.664,46.021 314.649 C 44.395 310.857,38.389 302.712,35.561 300.465 C 33.791 299.059,33.180 297.509,32.754 293.347 C 32.267 288.582,31.267 285.349,29.527 282.911 C 28.121 280.941,23.865 272.544,22.471 268.991 C 21.643 266.880,20.602 260.145,20.215 254.400 C 19.866 249.209,18.455 240.277,17.612 237.913 C 15.026 230.663,13.609 228.195,11.004 226.403 C 9.361 225.272,9.305 225.161,9.054 222.520 C 8.491 216.601,8.308 192.004,8.761 183.087 L 9.224 173.975 12.172 171.174 C 16.959 166.628,18.851 160.759,20.223 146.205 C 21.299 134.797,21.224 135.069,26.024 125.000 C 27.282 122.360,28.711 119.840,29.198 119.400 C 30.672 118.070,31.633 115.702,32.610 110.993 C 34.113 103.746,34.263 103.348,36.025 101.932 C 36.904 101.225,38.288 99.647,39.099 98.424 C 39.911 97.202,41.062 95.792,41.657 95.291 C 42.252 94.790,43.672 92.629,44.811 90.490 C 46.162 87.952,47.751 85.696,49.380 84.000 C 50.754 82.570,52.170 80.834,52.527 80.143 C 52.884 79.452,53.900 78.313,54.784 77.612 C 55.882 76.743,56.838 75.400,57.796 73.382 C 58.640 71.604,59.691 70.061,60.434 69.512 C 61.113 69.011,62.284 67.742,63.038 66.694 C 63.791 65.646,65.304 64.236,66.401 63.561 C 67.624 62.809,69.038 61.418,70.059 59.962 C 70.975 58.657,72.338 57.209,73.089 56.745 C 73.840 56.281,74.913 55.208,75.474 54.359 C 76.220 53.232,77.262 52.450,79.347 51.450 C 80.916 50.698,83.112 49.209,84.226 48.142 C 88.596 43.954,93.006 40.516,96.316 38.719 C 98.221 37.684,100.488 36.093,101.353 35.184 C 102.219 34.274,103.601 33.105,104.424 32.585 C 105.248 32.065,106.704 30.731,107.661 29.620 C 108.736 28.371,109.725 27.600,110.252 27.600 C 114.995 27.599,122.804 25.273,125.568 23.037 C 127.738 21.282,132.835 18.112,136.207 16.420 C 138.240 15.399,139.887 15.030,146.807 14.042 C 154.886 12.889,161.225 11.510,165.311 10.017 C 167.330 9.279,171.106 8.314,174.000 7.795 C 174.770 7.657,179.495 6.537,184.500 5.306 L 193.600 3.068 193.600 1.534 L 193.600 0.000 182.200 0.000 L 170.800 0.000 170.800 1.588 M224.400 1.582 C 224.400 3.101,224.460 3.173,225.900 3.403 C 226.725 3.534,228.570 3.969,230.000 4.368 C 233.707 5.404,247.498 8.730,249.400 9.048 C 250.280 9.195,252.080 9.803,253.400 10.400 C 257.663 12.328,261.455 13.134,273.198 14.610 C 277.935 15.206,278.769 15.424,279.998 16.395 C 280.769 17.004,282.765 18.307,284.433 19.292 C 286.101 20.276,288.518 21.938,289.803 22.985 C 292.701 25.345,294.757 26.245,299.555 27.250 C 302.525 27.872,303.654 28.314,304.955 29.365 C 305.860 30.096,308.310 31.624,310.400 32.761 C 312.490 33.898,314.560 35.073,315.000 35.372 C 315.682 35.835,316.232 35.811,318.723 35.210 C 323.639 34.025,325.414 31.560,325.819 25.358 C 325.947 23.401,326.445 20.285,326.926 18.433 L 327.800 15.066 330.400 13.872 L 333.000 12.678 355.582 12.771 L 378.164 12.863 381.031 14.281 C 385.479 16.480,386.824 19.706,385.594 25.228 C 384.408 30.550,384.366 114.475,385.546 119.019 L 386.278 121.837 385.113 124.900 C 383.950 127.955,383.941 127.965,381.673 128.881 L 379.400 129.800 338.200 129.916 L 297.000 130.032 293.872 129.152 C 290.816 128.293,290.725 128.231,289.902 126.437 C 288.721 123.861,282.808 118.054,279.936 116.649 C 278.353 115.874,277.599 115.249,277.428 114.570 C 276.783 111.998,270.110 106.211,265.876 104.552 C 264.528 104.023,262.789 102.998,262.012 102.273 C 254.858 95.598,250.029 93.767,237.600 93.016 C 230.397 92.582,223.048 91.320,218.676 89.767 C 215.142 88.512,210.033 88.463,205.400 89.640 C 200.259 90.947,191.498 92.350,184.543 92.981 C 173.635 93.971,171.261 94.351,169.253 95.430 C 165.198 97.610,162.884 99.227,161.115 101.119 C 160.095 102.209,158.662 103.323,157.931 103.594 C 157.199 103.865,154.549 104.786,152.041 105.640 C 146.736 107.448,144.893 108.710,139.207 114.430 C 137.113 116.537,134.410 118.985,133.200 119.870 C 129.541 122.547,124.679 128.556,122.792 132.733 C 122.302 133.815,121.423 134.968,120.812 135.330 C 117.471 137.303,111.600 147.548,111.600 151.404 C 111.600 153.771,109.422 158.595,107.471 160.553 C 105.467 162.563,104.993 163.398,102.452 169.400 C 100.070 175.028,99.933 176.413,99.714 197.015 C 99.408 225.799,100.776 233.491,107.506 240.829 C 109.372 242.863,109.672 243.473,110.954 247.829 C 112.989 254.747,113.460 255.955,115.077 258.400 C 115.878 259.610,116.985 261.287,117.539 262.126 C 118.092 262.966,119.187 264.116,119.973 264.682 C 121.022 265.439,121.951 266.837,123.481 269.956 C 124.987 273.027,126.119 274.738,127.578 276.147 C 128.686 277.217,129.961 278.689,130.411 279.418 C 130.861 280.146,132.185 281.376,133.353 282.151 C 134.521 282.926,136.089 284.365,136.838 285.347 C 137.587 286.329,138.676 287.417,139.257 287.764 C 139.838 288.110,141.458 289.577,142.857 291.024 C 145.532 293.790,147.659 295.113,151.047 296.118 C 152.173 296.452,153.973 297.346,155.047 298.104 C 156.121 298.862,157.960 299.996,159.132 300.623 C 160.305 301.249,162.154 302.624,163.242 303.678 C 166.788 307.114,168.703 307.763,177.800 308.611 C 183.118 309.107,185.036 309.446,186.600 310.168 C 198.460 315.643,214.916 315.736,232.000 310.424 C 234.090 309.774,237.960 308.966,240.600 308.628 C 248.437 307.625,251.842 306.515,254.146 304.212 C 255.793 302.566,258.953 300.323,261.200 299.205 C 262.190 298.713,263.360 297.983,263.800 297.584 C 264.240 297.185,265.616 296.479,266.858 296.016 C 269.460 295.046,272.079 293.261,273.029 291.812 C 273.877 290.517,280.360 284.000,280.800 284.000 C 281.952 284.000,286.782 278.999,289.492 275.000 C 290.089 274.120,291.572 272.316,292.788 270.991 C 294.005 269.666,295.327 267.855,295.726 266.968 C 296.199 265.918,296.961 265.082,297.909 264.577 C 298.710 264.150,300.183 263.168,301.183 262.396 C 302.182 261.623,303.975 260.543,305.168 259.996 L 307.335 259.000 349.650 259.000 C 397.996 259.000,392.253 258.492,394.366 262.959 L 395.482 265.317 394.773 267.159 C 394.383 268.171,393.314 271.083,392.397 273.629 C 390.894 277.805,390.544 278.419,388.826 279.899 C 386.426 281.966,382.788 288.881,382.039 292.800 C 380.841 299.068,378.824 304.052,376.618 306.200 C 373.418 309.315,370.283 314.797,368.795 319.878 C 367.885 322.983,366.257 325.345,363.609 327.400 C 362.475 328.280,360.719 330.170,359.706 331.600 C 356.971 335.464,352.765 340.138,350.169 342.200 C 349.338 342.860,348.168 344.171,347.570 345.114 C 346.971 346.056,345.768 347.344,344.897 347.976 C 344.025 348.608,342.574 349.996,341.673 351.062 C 340.772 352.128,339.338 353.429,338.486 353.952 C 337.634 354.476,336.236 355.871,335.381 357.052 C 333.861 359.149,329.857 362.218,326.800 363.628 C 323.458 365.170,319.599 368.036,317.983 370.176 C 316.345 372.345,316.219 372.421,312.254 373.643 C 308.051 374.937,305.677 375.981,304.052 377.250 C 303.531 377.657,301.813 378.611,300.234 379.371 C 298.655 380.130,296.471 381.591,295.381 382.616 C 293.215 384.655,290.871 385.675,286.800 386.350 C 278.277 387.764,273.102 388.973,270.000 390.275 C 268.130 391.060,264.850 392.114,262.711 392.617 C 256.735 394.023,252.800 396.330,252.800 398.428 L 252.800 400.000 260.200 400.000 L 267.600 400.000 267.600 398.464 C 267.600 396.098,271.781 394.249,285.800 390.417 C 294.682 387.990,299.483 385.898,304.200 382.404 C 306.785 380.489,312.026 377.710,314.400 376.995 C 315.803 376.573,320.689 373.383,322.600 371.642 C 323.480 370.840,326.630 368.570,329.600 366.596 C 337.252 361.512,352.619 346.438,362.200 334.616 C 363.300 333.259,364.858 331.572,365.662 330.867 C 367.655 329.118,371.852 322.902,373.080 319.879 C 374.799 315.650,375.885 313.791,377.965 311.514 C 380.229 309.037,384.111 300.842,385.867 294.835 C 387.024 290.874,387.960 288.929,389.617 287.042 C 390.283 286.283,392.131 282.813,393.724 279.331 L 396.619 273.000 398.310 272.877 L 400.000 272.754 400.000 264.236 L 400.000 255.718 396.500 255.360 C 394.575 255.163,390.480 254.994,387.400 254.985 C 298.942 254.708,305.501 254.534,300.897 257.274 C 297.355 259.381,291.581 265.158,288.448 269.729 C 285.327 274.282,281.423 278.743,279.066 280.451 C 278.206 281.074,275.148 283.850,272.270 286.620 C 267.413 291.293,261.529 295.188,259.302 295.202 C 259.136 295.203,257.571 296.284,255.825 297.604 C 249.944 302.047,242.543 305.274,237.000 305.810 C 235.460 305.959,232.895 306.330,231.300 306.634 C 215.518 309.642,203.856 309.856,191.022 307.373 C 188.175 306.822,183.439 306.017,180.498 305.585 C 171.815 304.309,170.769 303.860,162.800 297.991 C 161.370 296.937,158.310 295.189,156.000 294.105 C 150.028 291.304,147.205 289.262,140.292 282.750 C 131.235 274.217,130.370 273.288,128.243 269.800 C 125.462 265.238,124.763 264.235,121.563 260.202 C 118.308 256.099,115.084 249.786,113.391 244.200 C 112.791 242.220,111.073 238.170,109.572 235.200 C 104.000 224.170,103.416 220.927,103.406 201.000 C 103.397 180.540,104.046 176.727,109.289 166.450 C 110.790 163.508,112.730 158.962,113.601 156.348 C 115.634 150.244,118.325 144.732,120.509 142.200 C 121.457 141.100,123.109 138.940,124.179 137.400 C 129.709 129.443,132.528 126.054,136.652 122.400 C 139.011 120.310,142.447 117.203,144.286 115.496 C 147.208 112.784,148.375 112.033,153.515 109.559 C 162.688 105.145,164.008 104.423,167.000 102.183 C 171.483 98.828,173.342 98.269,185.600 96.587 C 188.130 96.240,193.080 95.505,196.600 94.954 C 207.747 93.208,214.820 93.204,225.200 94.936 C 229.930 95.726,235.510 96.547,237.600 96.760 C 244.210 97.436,251.734 100.020,255.286 102.834 C 256.449 103.754,259.375 105.482,261.790 106.673 C 267.110 109.298,269.521 111.072,272.858 114.813 C 274.256 116.381,276.660 118.620,278.200 119.788 C 281.383 122.203,284.758 125.439,288.082 129.266 C 292.073 133.859,289.387 133.625,338.029 133.625 C 374.179 133.625,379.069 133.552,381.270 132.982 C 389.165 130.936,391.915 126.760,390.848 118.438 C 390.121 112.767,390.244 29.638,390.986 25.109 C 391.804 20.119,391.134 15.914,389.173 13.730 C 383.652 7.579,383.595 7.567,360.321 7.592 C 350.047 7.603,340.057 7.434,338.121 7.215 C 328.942 6.178,325.996 8.540,323.019 19.323 C 320.961 26.776,320.557 27.502,317.634 28.983 L 315.739 29.943 314.170 29.061 C 312.075 27.884,306.361 25.559,301.200 23.782 C 297.762 22.599,295.940 21.627,291.156 18.424 C 284.845 14.200,280.752 12.344,275.600 11.367 C 272.765 10.830,267.414 9.311,257.400 6.200 C 254.980 5.449,251.740 4.553,250.200 4.210 C 248.660 3.867,246.995 3.496,246.500 3.385 C 245.751 3.218,245.600 2.918,245.600 1.592 L 245.600 0.000 235.000 0.000 L 224.400 0.000 224.400 1.582 " stroke="none" fill="#4ec4e4" fill-rule="evenodd"></path><path id="path4" d="M193.600 1.534 L 193.600 3.068 184.500 5.306 C 179.495 6.537,174.770 7.657,174.000 7.795 C 171.106 8.314,167.330 9.279,165.311 10.017 C 161.225 11.510,154.886 12.889,146.807 14.042 C 139.887 15.030,138.240 15.399,136.207 16.420 C 132.835 18.112,127.738 21.282,125.568 23.037 C 122.804 25.273,114.995 27.599,110.252 27.600 C 109.725 27.600,108.736 28.371,107.661 29.620 C 106.704 30.731,105.248 32.065,104.424 32.585 C 103.601 33.105,102.219 34.274,101.353 35.184 C 100.488 36.093,98.221 37.684,96.316 38.719 C 93.006 40.516,88.596 43.954,84.226 48.142 C 83.112 49.209,80.916 50.698,79.347 51.450 C 77.262 52.450,76.220 53.232,75.474 54.359 C 74.913 55.208,73.840 56.281,73.089 56.745 C 72.338 57.209,70.975 58.657,70.059 59.962 C 69.038 61.418,67.624 62.809,66.401 63.561 C 65.304 64.236,63.791 65.646,63.038 66.694 C 62.284 67.742,61.113 69.011,60.434 69.512 C 59.691 70.061,58.640 71.604,57.796 73.382 C 56.838 75.400,55.882 76.743,54.784 77.612 C 53.900 78.313,52.884 79.452,52.527 80.143 C 52.170 80.834,50.754 82.570,49.380 84.000 C 47.751 85.696,46.162 87.952,44.811 90.490 C 43.672 92.629,42.252 94.790,41.657 95.291 C 41.062 95.792,39.911 97.202,39.099 98.424 C 38.288 99.647,36.904 101.225,36.025 101.932 C 34.263 103.348,34.113 103.746,32.610 110.993 C 31.633 115.702,30.672 118.070,29.198 119.400 C 28.711 119.840,27.282 122.360,26.024 125.000 C 21.224 135.069,21.299 134.797,20.223 146.205 C 18.851 160.759,16.959 166.628,12.172 171.174 L 9.224 173.975 8.761 183.087 C 8.308 192.004,8.491 216.601,9.054 222.520 C 9.305 225.161,9.361 225.272,11.004 226.403 C 13.609 228.195,15.026 230.663,17.612 237.913 C 18.455 240.277,19.866 249.209,20.215 254.400 C 20.602 260.145,21.643 266.880,22.471 268.991 C 23.865 272.544,28.121 280.941,29.527 282.911 C 31.267 285.349,32.267 288.582,32.754 293.347 C 33.180 297.509,33.791 299.059,35.561 300.465 C 38.389 302.712,44.395 310.857,46.021 314.649 C 46.456 315.664,47.270 316.854,47.829 317.295 C 48.389 317.735,49.378 319.036,50.027 320.186 C 50.676 321.336,52.022 323.070,53.019 324.039 C 55.207 326.165,57.382 329.610,58.352 332.483 C 58.945 334.239,59.352 334.759,60.744 335.536 C 63.323 336.975,69.022 342.947,70.207 345.451 C 71.121 347.384,71.500 347.741,73.935 348.967 C 75.426 349.718,76.898 350.637,77.207 351.008 C 77.515 351.380,78.786 352.376,80.032 353.221 C 81.277 354.067,82.952 355.672,83.754 356.789 C 85.395 359.074,86.284 359.701,91.400 362.181 C 95.622 364.228,100.042 367.517,101.939 370.022 C 103.523 372.114,107.009 374.042,111.652 375.392 C 115.932 376.636,124.252 381.665,125.487 383.755 C 126.184 384.933,132.087 386.614,139.672 387.794 C 144.143 388.490,153.968 391.570,160.285 394.255 C 165.342 396.406,165.600 396.609,165.600 398.446 L 165.600 400.000 209.200 400.000 L 252.800 400.000 252.800 398.428 C 252.800 396.330,256.735 394.023,262.711 392.617 C 264.850 392.114,268.130 391.060,270.000 390.275 C 273.102 388.973,278.277 387.764,286.800 386.350 C 290.871 385.675,293.215 384.655,295.381 382.616 C 296.471 381.591,298.655 380.130,300.234 379.371 C 301.813 378.611,303.531 377.657,304.052 377.250 C 305.677 375.981,308.051 374.937,312.254 373.643 C 316.219 372.421,316.345 372.345,317.983 370.176 C 319.599 368.036,323.458 365.170,326.800 363.628 C 329.857 362.218,333.861 359.149,335.381 357.052 C 336.236 355.871,337.634 354.476,338.486 353.952 C 339.338 353.429,340.772 352.128,341.673 351.062 C 342.574 349.996,344.025 348.608,344.897 347.976 C 345.768 347.344,346.971 346.056,347.570 345.114 C 348.168 344.171,349.338 342.860,350.169 342.200 C 352.765 340.138,356.971 335.464,359.706 331.600 C 360.719 330.170,362.475 328.280,363.609 327.400 C 366.257 325.345,367.885 322.983,368.795 319.878 C 370.283 314.797,373.418 309.315,376.618 306.200 C 378.824 304.052,380.841 299.068,382.039 292.800 C 382.788 288.881,386.426 281.966,388.826 279.899 C 390.544 278.419,390.894 277.805,392.397 273.629 C 393.314 271.083,394.383 268.171,394.773 267.159 L 395.482 265.317 394.366 262.959 C 392.253 258.492,397.996 259.000,349.650 259.000 L 307.335 259.000 305.168 259.996 C 303.975 260.543,302.182 261.623,301.183 262.396 C 300.183 263.168,298.710 264.150,297.909 264.577 C 296.961 265.082,296.199 265.918,295.726 266.968 C 295.327 267.855,294.005 269.666,292.788 270.991 C 291.572 272.316,290.089 274.120,289.492 275.000 C 286.782 278.999,281.952 284.000,280.800 284.000 C 280.360 284.000,273.877 290.517,273.029 291.812 C 272.079 293.261,269.460 295.046,266.858 296.016 C 265.616 296.479,264.240 297.185,263.800 297.584 C 263.360 297.983,262.190 298.713,261.200 299.205 C 258.953 300.323,255.793 302.566,254.146 304.212 C 251.842 306.515,248.437 307.625,240.600 308.628 C 237.960 308.966,234.090 309.774,232.000 310.424 C 214.916 315.736,198.460 315.643,186.600 310.168 C 185.036 309.446,183.118 309.107,177.800 308.611 C 168.703 307.763,166.788 307.114,163.242 303.678 C 162.154 302.624,160.305 301.249,159.132 300.623 C 157.960 299.996,156.121 298.862,155.047 298.104 C 153.973 297.346,152.173 296.452,151.047 296.118 C 147.659 295.113,145.532 293.790,142.857 291.024 C 141.458 289.577,139.838 288.110,139.257 287.764 C 138.676 287.417,137.587 286.329,136.838 285.347 C 136.089 284.365,134.521 282.926,133.353 282.151 C 132.185 281.376,130.861 280.146,130.411 279.418 C 129.961 278.689,128.686 277.217,127.578 276.147 C 126.119 274.738,124.987 273.027,123.481 269.956 C 121.951 266.837,121.022 265.439,119.973 264.682 C 119.187 264.116,118.092 262.966,117.539 262.126 C 116.985 261.287,115.878 259.610,115.077 258.400 C 113.460 255.955,112.989 254.747,110.954 247.829 C 109.672 243.473,109.372 242.863,107.506 240.829 C 100.776 233.491,99.408 225.799,99.714 197.015 C 99.933 176.413,100.070 175.028,102.452 169.400 C 104.993 163.398,105.467 162.563,107.471 160.553 C 109.422 158.595,111.600 153.771,111.600 151.404 C 111.600 147.548,117.471 137.303,120.812 135.330 C 121.423 134.968,122.302 133.815,122.792 132.733 C 124.679 128.556,129.541 122.547,133.200 119.870 C 134.410 118.985,137.113 116.537,139.207 114.430 C 144.893 108.710,146.736 107.448,152.041 105.640 C 154.549 104.786,157.199 103.865,157.931 103.594 C 158.662 103.323,160.095 102.209,161.115 101.119 C 162.884 99.227,165.198 97.610,169.253 95.430 C 171.261 94.351,173.635 93.971,184.543 92.981 C 191.498 92.350,200.259 90.947,205.400 89.640 C 210.033 88.463,215.142 88.512,218.676 89.767 C 223.048 91.320,230.397 92.582,237.600 93.016 C 250.029 93.767,254.858 95.598,262.012 102.273 C 262.789 102.998,264.528 104.023,265.876 104.552 C 270.110 106.211,276.783 111.998,277.428 114.570 C 277.599 115.249,278.353 115.874,279.936 116.649 C 282.808 118.054,288.721 123.861,289.902 126.437 C 290.725 128.231,290.816 128.293,293.872 129.152 L 297.000 130.032 338.200 129.916 L 379.400 129.800 381.673 128.881 C 383.941 127.965,383.950 127.955,385.113 124.900 L 386.278 121.837 385.546 119.019 C 384.366 114.475,384.408 30.550,385.594 25.228 C 386.824 19.706,385.479 16.480,381.031 14.281 L 378.164 12.863 355.582 12.771 L 333.000 12.678 330.400 13.872 L 327.800 15.066 326.926 18.433 C 326.445 20.285,325.947 23.401,325.819 25.358 C 325.414 31.560,323.639 34.025,318.723 35.210 C 316.232 35.811,315.682 35.835,315.000 35.372 C 314.560 35.073,312.490 33.898,310.400 32.761 C 308.310 31.624,305.860 30.096,304.955 29.365 C 303.654 28.314,302.525 27.872,299.555 27.250 C 294.757 26.245,292.701 25.345,289.803 22.985 C 288.518 21.938,286.101 20.276,284.433 19.292 C 282.765 18.307,280.769 17.004,279.998 16.395 C 278.769 15.424,277.935 15.206,273.198 14.610 C 261.455 13.134,257.663 12.328,253.400 10.400 C 252.080 9.803,250.280 9.195,249.400 9.048 C 247.498 8.730,233.707 5.404,230.000 4.368 C 228.570 3.969,226.725 3.534,225.900 3.403 C 224.460 3.173,224.400 3.101,224.400 1.582 L 224.400 0.000 209.000 0.000 L 193.600 0.000 193.600 1.534 " stroke="none" fill="#04acd4" fill-rule="evenodd"></path></g></svg>